<svg width="833" height="501" viewBox="0 0 833 501" fill="none" xmlns="http://www.w3.org/2000/svg">
<g clip-path="url(#clip0_276_69)">
<path d="M43.4203 499.242C43.3647 498.997 37.9803 474.444 48.9765 454.051C59.9726 433.659 83.4449 424.666 83.6808 424.577L84.7535 424.175L85.0069 425.293C85.0626 425.538 90.4469 450.091 79.4508 470.484C68.4551 490.876 44.9823 499.869 44.7465 499.958L43.6732 500.36L43.4203 499.242ZM83.2823 426.903C78.5806 428.926 60.0244 437.777 50.7372 455C41.4491 472.225 44.2514 492.594 45.1449 497.631C49.8447 495.614 68.3936 486.776 77.69 469.535C86.9776 452.311 84.1764 431.943 83.2823 426.903Z" fill="#E56F8C" fill-opacity="0.5"/>
<path d="M71.0469 463.331C51.2863 475.219 43.6758 498.834 43.6758 498.834C43.6758 498.834 68.1037 503.172 87.8643 491.284C107.625 479.395 115.235 455.781 115.235 455.781C115.235 455.781 90.8076 451.442 71.0469 463.331Z" fill="#E56F8C" fill-opacity="0.5"/>
<path d="M370.298 272.745C370.599 271.189 370.555 269.586 370.17 268.05C369.785 266.513 369.068 265.079 368.069 263.849C367.07 262.62 365.813 261.624 364.388 260.933C362.962 260.241 361.402 259.871 359.818 259.848L350.667 236.835L335.326 238.985L348.705 271.302C348.842 273.966 349.952 276.487 351.824 278.388C353.695 280.288 356.199 281.436 358.861 281.614C361.522 281.792 364.157 280.987 366.264 279.352C368.372 277.718 369.807 275.367 370.298 272.745Z" fill="#9F616A"/>
<path d="M342.034 264.659L337.281 253.323L307.659 196.938L309.27 92.6051L309.579 92.5641C328.533 90.0598 341.357 177.393 341.894 181.113L360.61 245.121L365.065 259.23L342.034 264.659Z" fill="#FD6584"/>
<path d="M296.52 484.662L310.922 484.661L317.773 429.109L296.517 429.11L296.52 484.662Z" fill="#9F616A"/>
<path d="M292.846 479.959L321.209 479.958H321.21C326.004 479.959 330.601 481.863 333.991 485.253C337.38 488.642 339.285 493.24 339.285 498.033V498.621L292.847 498.622L292.846 479.959Z" fill="#2F2E41"/>
<path d="M164.096 462.718L175.913 470.953L213.295 429.294L195.855 417.141L164.096 462.718Z" fill="#9F616A"/>
<path d="M163.77 456.76L187.041 472.976L187.042 472.977C190.975 475.718 193.658 479.909 194.501 484.628C195.344 489.347 194.278 494.207 191.537 498.14L191.201 498.622L153.101 472.073L163.77 456.76Z" fill="#2F2E41"/>
<path d="M288.604 471.604L287.982 367.393L278.92 301.866L262.025 359.491L261.992 359.538L200.767 448.424L176.943 436.354L177.074 436.044C178.53 432.581 212.836 351.249 222.057 351.249C222.863 351.306 223.67 351.166 224.409 350.841C225.148 350.516 225.797 350.016 226.3 349.385C229.006 345.771 226.802 338.102 226.78 338.025C224.14 327.079 230.777 323.351 232.099 322.729L235.655 249.332L236.023 249.357L332.413 256.118L328.369 347.885L319.67 468.117L319.372 468.151L288.604 471.604Z" fill="#2F2E41"/>
<path d="M333.886 272.382L333.469 272.348L229.804 263.992L230.06 229.692L235.133 140.133L235.162 140.071L255.825 95.2115L270.472 88.579L291.843 87.4543L291.895 87.4674L311.398 92.2993L331.686 237.939L333.886 272.382Z" fill="#FD6584"/>
<path d="M295.191 75.9577C308.418 68.7272 313.279 52.1434 306.049 38.9166C298.818 25.6899 282.234 20.8289 269.008 28.0593C255.781 35.2897 250.92 51.8735 258.15 65.1003C265.381 78.3271 281.965 83.1881 295.191 75.9577Z" fill="#9F616A"/>
<path d="M254.651 58.86V48.2256C254.651 48.2256 246.075 38.1252 255.508 35.5809C255.508 35.5809 258.081 10.1378 280.379 22.0112C280.379 22.0112 311.252 16.9226 307.822 34.7328C307.822 34.7328 315.54 30.0831 312.967 41.9565L307.992 61.0825C307.992 61.0825 310.395 48.4485 302.676 46.7522L298.388 44.2079C298.388 44.2079 286.382 56.0813 268.372 41.6636C268.372 41.6636 260.654 39.8214 261.511 47.4543C262.369 55.0872 254.651 58.86 254.651 58.86Z" fill="#2F2E41"/>
<path d="M279.258 246.767C279.275 245.183 278.945 243.614 278.29 242.172C277.635 240.729 276.672 239.447 275.469 238.417C274.265 237.386 272.85 236.633 271.324 236.208C269.798 235.784 268.197 235.699 266.634 235.961L253.502 214.964L238.796 219.832L257.757 249.223C258.37 251.819 259.914 254.1 262.096 255.634C264.279 257.168 266.948 257.848 269.598 257.545C272.249 257.243 274.696 255.978 276.476 253.992C278.256 252.005 279.246 249.435 279.258 246.767Z" fill="#9F616A"/>
<path d="M245.341 240.149L221.583 191.914L221.604 191.796C221.7 191.262 231.263 138.162 238.577 118.644C245.938 99.0027 256.013 95.0592 256.438 94.9009L256.651 94.8218L265.685 103.487L253.171 187.015L266.66 227.299L245.341 240.149Z" fill="#FD6584"/>
<path d="M832.21 0H786.21V46.0003H832.21V0Z" fill="#E56F8C" fill-opacity="0.5"/>
<path d="M472.208 179.001H426.208V225.002H472.208V179.001Z" fill="#E56F8C" fill-opacity="0.5"/>
<path d="M452.027 204.844H815.704V20.7341H452.027V204.844Z" fill="white"/>
<path d="M818.704 207.844H449.027V17.7339H818.704V207.844ZM455.027 201.844H812.704V23.7339H455.027V201.844Z" fill="#FD6584"/>
<path d="M775.488 85.3164H495.68V94.5956H775.488V85.3164Z" fill="#FD6584"/>
<path d="M775.488 107.82H495.68V117.099H775.488V107.82Z" fill="#FD6584"/>
<path d="M775.488 141.046H723.487V149.099H775.488V141.046Z" fill="#FD6584"/>
<path d="M382.002 500.32H1C0.734787 500.32 0.480431 500.214 0.292894 500.027C0.105357 499.839 0 499.585 0 499.32C0 499.054 0.105357 498.8 0.292894 498.612C0.480431 498.425 0.734787 498.32 1 498.32H382.002C382.267 498.32 382.521 498.425 382.709 498.612C382.896 498.8 383.002 499.054 383.002 499.32C383.002 499.585 382.896 499.839 382.709 500.027C382.521 500.214 382.267 500.32 382.002 500.32Z" fill="#F32B2F"/>
</g>
<defs>
<clipPath id="clip0_276_69">
<rect width="832.21" height="500.36" fill="white"/>
</clipPath>
</defs>
</svg>
